<?xml version="1.0" encoding="utf-8"?>
<!-- Generator: Adobe Illustrator 27.9.0, SVG Export Plug-In . SVG Version: 6.00 Build 0)  -->
<svg version="1.1" id="Layer_1" xmlns="http://www.w3.org/2000/svg" xmlns:xlink="http://www.w3.org/1999/xlink" x="0px" y="0px"
	 viewBox="0 0 176 175.9" style="enable-background:new 0 0 176 175.9;" xml:space="preserve">
<style type="text/css">
	.st0{fill:#414142;}
	.st1{fill:#FFFFFF;}
</style>
<g>
	<circle class="st0" cx="88" cy="-223.9" r="88"/>
	<g>
		<path class="st1" d="M103.2-265.5c0.4,0,0.8,0,1.2,0c0.1,0.1,0.3,0.1,0.5,0.2c0.8,0.2,1.6,0.2,2.5,0.4c0.8,0.2,1.7,0.5,2.5,0.6
			c1.3,0.3,2.6,0.6,3.9,1c1,0.3,2,0.7,3.1,1c1.3,0.4,2.6,0.9,3.9,1.4c1.5,0.6,3,1.1,4.4,1.8c0.4,0.2,0.9,0.3,1.2,0.7
			c1.2,1.9,2.4,3.8,3.5,5.7c0.8,1.4,1.6,2.8,2.4,4.1c0.9,1.6,1.6,3.2,2.4,4.8c0.6,1.4,1.3,2.8,1.9,4.3c0.8,2.2,1.6,4.3,2.3,6.5
			c0.6,1.7,1,3.5,1.5,5.2c0.3,1.2,0.5,2.4,0.8,3.6c0.2,0.6,0.3,1.2,0.4,1.7c0.1,0.9,0.3,1.9,0.4,2.8c0.1,1,0.4,1.9,0.4,2.9
			c0.1,1.2,0.2,2.3,0.3,3.5c0.2,1,0.1,2,0.1,3c0.1,2.2,0,4.3,0,6.5c0,0.8,0,1.5,0,2.3c0,1.5-0.3,2.9-0.3,4.4c0,0.4-0.1,0.6-0.4,0.8
			c-0.3,0.2-0.5,0.3-0.8,0.5c-1.5,1.1-3,2.1-4.6,3.1c-1.9,1.2-3.8,2.3-5.7,3.3c-2.1,1.1-4.3,2.2-6.5,3.2c-2,0.9-4.1,1.6-6.1,2.4
			c-0.6,0.2-1.2,0.5-1.9,0.6c-0.6,0.1-1.2,0.3-1.8,0.6c-0.1,0-0.1,0-0.2,0c-1.1-1.5-2.2-3.1-3.1-4.7c-0.9-1.5-1.8-3-2.6-4.6
			c-0.2-0.4-0.2-0.6,0.3-0.7c0.9-0.3,1.8-0.7,2.7-1.1c1.9-0.8,3.8-1.7,5.6-2.8c0.4-0.2,0.4-0.4,0-0.7c-0.5-0.4-0.9-0.7-1.4-1
			c-0.2-0.1-0.3-0.1-0.5,0c-0.5,0.2-1.1,0.4-1.6,0.6c-1.3,0.6-2.7,1.1-4,1.6c-1.4,0.5-2.8,0.9-4.3,1.3c-1,0.3-1.9,0.6-2.9,0.8
			c-1.7,0.3-3.3,0.7-5,0.9c-1.2,0.2-2.3,0.3-3.5,0.4c-0.7,0.1-1.3,0.2-2,0.2c-1.4,0-2.9,0.1-4.3,0c-1.6-0.1-3.2,0.1-4.8-0.2
			c-1.1-0.2-2.3-0.2-3.5-0.3c-1.6-0.2-3.2-0.6-4.8-0.8c-1.5-0.2-2.9-0.7-4.3-1.1c-1.5-0.4-2.9-0.8-4.3-1.4c-0.8-0.3-1.6-0.5-2.4-0.9
			c-1-0.5-2-0.8-3-1.3c-0.3-0.1-0.5-0.1-0.7,0.1c-0.4,0.3-0.8,0.6-1.3,1c-0.3,0.3-0.3,0.4,0,0.6c1.4,0.9,2.9,1.6,4.5,2.3
			c1.2,0.6,2.5,1,3.8,1.6c0.4,0.2,0.5,0.3,0.3,0.7c-0.1,0.3-0.2,0.5-0.4,0.8c-0.6,1-1.2,2.1-1.8,3.1c-1.2,1.9-2.3,3.7-3.7,5.4
			c0,0-0.1,0-0.1,0c-0.1-0.1-0.2-0.1-0.3-0.2c-1-0.3-2.1-0.6-3.1-1c-2.5-0.9-5-1.8-7.5-2.9c-1.7-0.8-3.5-1.6-5.2-2.5
			c-1.4-0.7-2.7-1.5-4-2.3c-2.2-1.4-4.4-2.8-6.6-4.2c-0.3-0.2-0.5-0.4-0.8-0.6c-0.1-0.1-0.2-0.2-0.2-0.4c-0.2-1-0.1-2-0.3-3
			c-0.1-0.6-0.1-1.2,0-1.7c0.1-0.7-0.2-1.4-0.2-2.1c0-2.4-0.1-4.8,0.1-7.1c0.1-0.6-0.1-1.2,0-1.8c0-0.4,0.2-0.7,0.2-1.1
			c0-0.9,0.2-1.8,0.2-2.8c0-0.1,0-0.2,0-0.3c0.1-0.6,0.2-1.2,0.3-1.8c0.2-1.2,0.2-2.4,0.5-3.5c0.2-1,0.4-2.1,0.6-3.1
			c0.3-1.2,0.5-2.4,0.9-3.6c0.2-0.7,0.3-1.4,0.5-2.1c0.2-0.7,0.4-1.4,0.7-2.1c0.5-1.7,1.1-3.4,1.8-5.1c1-2.6,2.1-5.1,3.3-7.6
			c0.7-1.6,1.6-3.1,2.4-4.6c0.7-1.3,1.5-2.6,2.2-3.9c0.8-1.4,1.7-2.8,2.7-4.2c0.2-0.3,0.4-0.6,0.7-0.7c1.3-0.5,2.6-1.2,4-1.6
			c2.2-0.8,4.3-1.7,6.5-2.3c1.4-0.4,2.8-0.8,4.1-1.2c0.8-0.2,1.6-0.4,2.4-0.5c1-0.2,1.9-0.5,2.9-0.7c0.5-0.1,1,0,1.4-0.3
			c0.4,0,0.7,0,1.1,0c0.3,0.6,0.7,1.2,1,1.9c0.5,1.2,1.2,2.3,1.7,3.5c0.1,0.3,0.3,0.4,0.6,0.3c0.9-0.1,1.8-0.3,2.7-0.4
			c1.2-0.1,2.3-0.2,3.5-0.3c1.3-0.1,2.6-0.1,3.9-0.1c1.9-0.1,3.8,0,5.7,0.1c1.5,0.1,3,0.1,4.5,0.3c1.3,0.2,2.6,0.2,3.8,0.4
			c0.3,0.1,0.5-0.1,0.6-0.4C101.4-262,102.3-263.7,103.2-265.5z M60.2-220c-0.1,1.1,0.1,2.1,0.3,3c0.1,0.8,0.5,1.5,0.8,2.2
			c0.7,1.5,1.7,2.7,2.9,3.7c1.1,0.9,2.5,1.5,3.9,1.9c1.5,0.4,2.9,0.2,4.3-0.2c1.5-0.5,2.9-1.2,3.9-2.4c0.5-0.5,1-1,1.4-1.7
			c0.3-0.6,0.7-1.3,1-1.9c0.5-1.1,0.7-2.2,0.8-3.3c0.1-1.1,0-2.2-0.1-3.2c-0.2-1.2-0.5-2.4-1.2-3.5c-0.8-1.4-1.8-2.6-3.2-3.6
			c-1.2-0.9-2.5-1.4-4-1.6c-1.1-0.1-2.2-0.2-3.3,0.1c-1.1,0.3-2.2,0.7-3.2,1.5c-1,0.8-1.9,1.7-2.6,2.8c-0.7,1.1-1.1,2.2-1.5,3.5
			C60.2-221.8,60.1-220.9,60.2-220z M106.1-230.7c-0.5,0-1-0.1-1.4,0c-1.1,0.3-2.2,0.6-3.1,1.2c-0.6,0.4-1.3,0.8-1.8,1.4
			c-0.8,0.9-1.5,1.8-2.1,2.9c-0.8,1.5-1.1,3.1-1.2,4.8c-0.1,1.1,0.1,2.1,0.3,3.1c0.4,1.5,0.9,2.9,1.8,4.1c1,1.4,2.3,2.6,4,3.3
			c1.4,0.6,2.9,0.9,4.5,0.8c2.1-0.2,3.8-1.1,5.3-2.4c1-0.9,1.8-2,2.4-3.3c0.7-1.4,1.1-2.8,1-4.4c0-0.1,0-0.3,0-0.4
			c0.1-0.4,0.1-0.9,0.1-1.3c-0.1-1-0.3-1.9-0.6-2.9c-0.3-1.1-0.9-2.1-1.5-3.1c-0.5-0.8-1.3-1.5-2-2.1c-1-0.8-2.1-1.2-3.2-1.6
			C107.8-230.6,107-230.8,106.1-230.7z"/>
	</g>
</g>
<g>
	<path class="st0" d="M88,0c48.3-0.1,88.9,39.6,88,89.7c-0.8,47.1-39.3,86.4-88.4,86.3C39.2,175.7-0.1,136.6,0,87.6
		C0.1,39.3,39.5-0.1,88,0z M111.8,131.9c1.5,0.1,2.8-0.5,3.8-1.6c1.9-2,2.5-4.6,3-7.2c0.9-4.8,1.8-9.6,2.6-14.4
		c1.1-6.2,2.2-12.3,3.1-18.5c1.4-8.8,2.8-17.6,3.8-26.5c0.3-2.4,0.8-4.8,0.3-7.3c-0.3-1.9-1.3-2.9-3.1-3.3c-2.5-0.6-4.9,0.3-7.1,1
		c-10.9,3.7-21.5,8.3-32.1,12.8C75.1,71.7,64,76.6,52.9,81.4c-5.3,2.3-10.5,4.6-15.8,7c-1.1,0.5-2.1,1.2-3,2.1
		c-1.1,1.2-1,2.5,0.1,3.6c0.8,0.8,1.9,1.3,3,1.7c2.9,1,5.8,1.9,8.7,2.8c2,0.6,4.1,1.1,6.2,1.6c4.8,1.3,9.2,0.4,13.3-2.4
		c11.3-7.6,22.6-15.1,33.9-22.7c1.2-0.8,2.3-1.6,3.6-2.2c0.8-0.3,1.6-0.5,2.2,0.3c0.6,0.8,0.3,1.6-0.3,2.3c-2.6,3-5.5,5.8-8.4,8.6
		c-6.3,6.1-13,11.9-19.2,18.2c-3.3,3.4-3.2,6,0.6,8.8c2.6,1.9,5.3,3.7,8,5.5c6.5,4.4,13.1,8.9,19.6,13.3
		C107.3,131,109.5,131.8,111.8,131.9z"/>
</g>
<g>
	<circle class="st0" cx="88" cy="399.8" r="88"/>
	<path class="st1" d="M143.3,343.9c-2.9,0-5.5,0-8,0c-0.5,0-0.8,0.4-1.1,0.7c-3.1,3.5-6.5,6.8-9.6,10.3c-3.8,4.2-7.7,8.2-11.5,12.3
		c-5,5.6-10.2,10.9-15.4,16.4c-0.9,1-1.6,1-2.4-0.1c-1.7-2.3-3.4-4.6-5.1-6.9c-3.7-5-7.4-10-11.2-15c-4.2-5.6-8.3-11.1-12.5-16.7
		c-0.7-0.9-1.4-1.2-2.5-1.2c-9.2,0-18.4,0-27.6,0c-0.9,0-1.8,0-2.7,0c-0.2,0-0.5,0-0.6,0.2c-0.1,0.2,0.1,0.4,0.2,0.5
		c0.8,1.1,1.6,2.1,2.4,3.2c4.7,6.3,9.5,12.7,14.2,19c4.2,5.6,8.4,11.2,12.6,16.8c4.9,6.5,9.7,13,14.6,19.5c0.7,0.9,0.7,1.6-0.1,2.4
		c-2.7,2.9-5.3,5.8-8,8.6c-2.9,3.1-5.9,6.2-8.8,9.3c-3.1,3.4-6.2,6.8-9.3,10.1c-5.7,6.1-11.4,12.1-17.1,18.2
		c-0.2,0.2-0.5,0.4-0.4,0.7c0.1,0.3,0.5,0.2,0.8,0.2c2.1,0,4.2,0,6.3,0c0.7,0,1.2-0.3,1.6-0.8c0.9-1,1.8-2,2.7-2.9
		c2.6-2.8,5.3-5.6,7.9-8.4c6.2-6.7,12.4-13.4,18.7-20c3-3.2,6-6.4,9-9.6c1.2-1.3,1.7-1.3,2.7,0.1c2.1,2.8,4.1,5.6,6.2,8.3
		c3.3,4.4,6.6,8.8,9.9,13.2c4.7,6.2,9.3,12.4,13.9,18.7c0.8,1,1.6,1.4,2.8,1.4c8.8,0,17.7,0,26.5,0c1.1,0,2.1,0,3.2,0
		c0.2,0,0.5,0,0.7-0.2c0.2-0.3-0.1-0.5-0.2-0.7c-0.8-1-1.6-2.1-2.4-3.1c-3.7-5-7.4-9.9-11.1-14.9c-4.3-5.8-8.7-11.6-13-17.4
		c-4.3-5.7-8.6-11.5-12.9-17.3c-2-2.7-4-5.3-6-8c-0.5-0.6-0.6-1.2,0-1.9c3.4-3.6,6.8-7.3,10.2-10.9c3.4-3.6,6.8-7.2,10.2-10.8
		c6-6.4,11.9-13,18-19.3C140.7,346.9,141.9,345.5,143.3,343.9z"/>
	<path class="st0" d="M54.6,350.3c2.3,0,4.5,0,6.8,0c1.1,0,1.8,0.4,2.4,1.3c3.6,4.8,7.2,9.6,10.8,14.5c4.6,6.2,9.2,12.4,13.9,18.6
		c3.2,4.3,6.6,8.6,9.8,12.9c4.2,5.7,8.5,11.4,12.8,17.1c4.7,6.3,9.4,12.6,14.1,18.9c2.8,3.8,5.7,7.6,8.5,11.4
		c0.2,0.3,0.5,0.6,0.3,1.1c-0.2,0.5-0.6,0.5-1.1,0.5c-4.7,0-9.4,0-14.1,0c-0.9,0-1.5-0.4-2.1-1.1c-1.7-2.3-3.5-4.6-5.2-7
		c-3.7-4.9-7.3-9.8-11-14.7c-3.5-4.7-7.1-9.5-10.6-14.2c-2.8-3.8-5.7-7.6-8.6-11.3c-3.5-4.7-7-9.4-10.5-14
		c-3.7-4.9-7.4-9.8-11.1-14.7c-3.2-4.2-6.3-8.5-9.5-12.7c-1.2-1.6-2.3-3.1-3.5-4.7c-0.3-0.4-0.7-0.8-0.4-1.3
		c0.3-0.5,0.8-0.4,1.2-0.4C50,350.2,52.3,350.2,54.6,350.3C54.6,350.2,54.6,350.3,54.6,350.3z"/>
</g>
<g>
	<circle class="st0" cx="88" cy="711.7" r="88"/>
	<g>
		<path class="st1" d="M89.9,667.4c10.8,0,21.5,0.3,32.3,0.9c4.5,0.3,9,0.4,13.4,1.3c7.4,1.5,12,6.1,13.5,13.5
			c1.4,6.8,1.9,13.6,2.2,20.5c0.3,6.8,0.2,13.5-0.2,20.3c-0.4,6-1,12-2.2,17.9c-1.3,6.2-6.5,10.9-13.2,12
			c-6.8,1.2-13.7,1.5-20.6,1.8c-15.1,0.6-30.1,0.6-45.2,0.2c-8.9-0.2-17.9-0.6-26.8-1.6c-3.8-0.4-7.5-1.2-10.6-3.8
			c-3.5-2.9-5.2-6.8-6-11.2c-1.6-9.4-2-19-2-28.5c0-8.9,0.6-17.9,2-26.7c1-6.1,4-10.6,9.7-13.1c2.4-1.1,4.9-1.3,7.5-1.6
			C59.1,667.5,74.5,667.4,89.9,667.4z M108.8,711.7c-0.2-0.2-0.3-0.2-0.5-0.3c-10.6-6.1-21.2-12.2-31.8-18.3c-1-0.6-0.8,0.1-0.8,0.7
			c0,11.9,0,23.9,0,35.8c0,1.2,0,1.2,1,0.6c6.6-3.8,13.1-7.5,19.7-11.3C100.5,716.5,104.6,714.1,108.8,711.7z"/>
		<path class="st0" d="M108.8,711.7c-4.2,2.4-8.3,4.8-12.4,7.1c-6.6,3.8-13.1,7.5-19.7,11.3c-1,0.6-1,0.6-1-0.6
			c0-11.9,0-23.9,0-35.8c0-0.5-0.2-1.3,0.8-0.7c10.6,6.1,21.2,12.2,31.8,18.3C108.4,711.5,108.5,711.5,108.8,711.7z"/>
	</g>
</g>
</svg>
