<svg width="22" height="20" viewBox="0 0 22 20" fill="none" xmlns="http://www.w3.org/2000/svg">
<path d="M10.9633 9C8.93333 9 7.06333 9.67 5.56333 10.8L3.76333 8.4C5.77333 6.89 8.26333 6 10.9633 6C13.6633 6 16.1533 6.89 18.1633 8.4L16.8833 10.1C16.5133 10.17 16.1433 10.27 15.8033 10.41C14.4033 9.5 12.7433 9 10.9633 9ZM19.9633 6L21.7633 3.6C18.7533 1.34 15.0133 0 10.9633 0C6.91333 0 3.17333 1.34 0.16333 3.6L1.96333 6C4.46333 4.12 7.58333 3 10.9633 3C14.3433 3 17.4633 4.12 19.9633 6ZM10.9633 12C9.61333 12 8.36333 12.45 7.36333 13.2L10.9633 18L12.0033 16.61C11.9633 16.41 11.9633 16.21 11.9633 16C11.9633 14.66 12.4033 13.43 13.1533 12.43C12.4633 12.16 11.7333 12 10.9633 12ZM20.0833 12.46L17.9633 14.59L15.8433 12.47L14.4333 13.88L16.5533 16L14.4333 18.12L15.8433 19.54L17.9633 17.41L20.0833 19.54L21.5033 18.12L19.3733 16L21.5033 13.88L20.0833 12.46Z" fill="#880000"/>
</svg>
