<svg width="14" height="13" viewBox="0 0 14 13" fill="#008888" xmlns="http://www.w3.org/2000/svg">
<path d="M6.40141 4.59984H7.66808V3.33317H6.40141M7.03475 11.5665C4.24175 11.5665 1.96808 9.29284 1.96808 6.49984C1.96808 3.70684 4.24175 1.43317 7.03475 1.43317C9.82775 1.43317 12.1014 3.70684 12.1014 6.49984C12.1014 9.29284 9.82775 11.5665 7.03475 11.5665ZM7.03475 0.166504C6.20304 0.166504 5.37948 0.33032 4.61109 0.6486C3.84269 0.96688 3.14451 1.43339 2.55641 2.02149C1.36868 3.20922 0.701416 4.82013 0.701416 6.49984C0.701416 8.17954 1.36868 9.79045 2.55641 10.9782C3.14451 11.5663 3.84269 12.0328 4.61109 12.3511C5.37948 12.6694 6.20304 12.8332 7.03475 12.8332C8.71445 12.8332 10.3254 12.1659 11.5131 10.9782C12.7008 9.79045 13.3681 8.17954 13.3681 6.49984C13.3681 5.66813 13.2043 4.84457 12.886 4.07617C12.5677 3.30778 12.1012 2.6096 11.5131 2.02149C10.925 1.43339 10.2268 0.96688 9.45841 0.6486C8.69001 0.33032 7.86645 0.166504 7.03475 0.166504ZM6.40141 9.6665H7.66808V5.8665H6.40141V9.6665Z" />
</svg>
