<svg width="247" height="221" viewBox="0 0 247 221" fill="none" xmlns="http://www.w3.org/2000/svg">
<path d="M194.8 80.7001L184.5 82.6001C183.2 82.8001 182.2 83.7001 181.7 84.9001C180.7 87.3001 179 89.3001 176.9 90.7001L176.3 91.1001C173.1 90.4001 169.7 90.0001 166.3 90.0001C161.1 90.0001 156.2 90.8001 151.5 92.4001C147.5 84.2001 141.6 77.1001 134.6 71.5001C134.6 70.2001 134.6 68.8001 134.7 67.5001L134.8 66.4001C134.9 63.8001 135.8 61.4001 137.4 59.3001C138.2 58.2001 138.4 56.9001 138 55.7001L134.5 45.8001C134.3 45.2001 134.5 44.4001 135 44.0001L142.4 37.5001C142.7 37.2001 143.2 37.1001 143.5 37.1001L170.1 37.4001C171.8 37.4001 173.3 36.6001 174.2 35.3001L177.4 30.6001L188 31.3001L184.8 39.6001C183.8 42.2001 184 45.0001 185.4 47.4001L197.9 68.8001C198.1 69.2001 198.1 69.6001 198.1 70.0001L196.2 79.6001C195.9 80.1001 195.4 80.6001 194.8 80.7001Z" fill="#814cdc"/>
<path d="M230.4 64.9999C230.4 84.6999 221.5 102.4 207.5 114.1C202.4 105 194.3 97.6999 184.6 93.5999C185.8 92.2999 186.8 90.8999 187.7 89.3999L196.3 87.7999C199.9 87.1999 202.7 84.3999 203.5 80.6999L205.4 71.0999C205.8 68.8999 205.5 66.6999 204.3 64.7999L191.8 43.3999C191.6 42.9999 191.5 42.4999 191.7 41.9999L196 30.6999C196.6 29.1999 196.4 27.4999 195.6 26.1999C194.7 24.7999 193.3 23.9999 191.7 23.8999L176.6 22.8999C174.8 22.7999 173.2 23.5999 172.2 24.9999L168.9 29.7999L143.5 29.6999H143.4C141.2 29.6999 139.1 30.4999 137.5 31.8999L130.1 38.3999C127.3 40.8999 126.3 44.6999 127.5 48.1999L130.4 56.3999C128.6 59.1999 127.6 62.4999 127.5 65.8999V66.5999C120 62.1999 111.5 59.3999 102.5 58.4999C105.8 26.0999 133.1 0.899902 166.4 0.899902C201.7 0.899902 230.4 29.5999 230.4 64.9999Z" fill="#814cdc"/>
<path d="M147.8 101.4C147.8 101.4 147.7 101.4 147.7 101.5C147.6 101.5 147.6 101.6 147.5 101.6V101.7C147.6 101.7 147.6 101.6 147.7 101.6C147.9 101.5 148.1 101.4 148.2 101.3L147.8 101.4Z" fill="#814cdc"/>
<path d="M135.2 157C134.4 157.9 133.5 158.7 132.6 159.5L132.5 159.6C131.9 158.8 131.4 157.9 130.9 157H135.2Z" fill="#814cdc"/>
<path d="M130.9 157H135.3C134.5 157.9 133.6 158.7 132.7 159.5L132.6 159.6C131.9 158.8 131.4 157.9 130.9 157Z" fill="#814cdc"/>
<path d="M148.2 101.3C148 101.4 147.9 101.5 147.7 101.6C147.6 101.6 147.6 101.7 147.5 101.7V101.6C147.6 101.6 147.6 101.5 147.7 101.5C147.7 101.5 147.8 101.5 147.8 101.4L148.2 101.3Z" fill="white"/>
<path d="M208.8 146.3C207.6 146.3 206.4 146.4 205.2 146.5C205.5 145.3 205.7 144.1 205.9 142.9C206.1 141.7 206.2 140.5 206.2 139.3C206.2 138.6 206.2 138 206.2 137.3C206.2 130.5 204.5 124.2 201.6 118.6C196.6 109.1 188.1 101.9 177.7 98.7997C174.3 97.7997 170.7 97.1997 167 97.0997C166.7 97.0997 166.3 97.0997 166 97.0997C165.7 97.0997 165.5 97.0997 165.2 97.0997C165 97.0997 164.9 97.0997 164.7 97.0997C161 97.1997 157.5 97.7997 154.2 98.7997C153.1 99.0997 152 99.4997 150.9 99.9997C149.8 100.4 148.8 100.9 147.8 101.4L148.2 101.3C148 101.4 147.9 101.5 147.7 101.6C147.6 101.6 147.6 101.7 147.5 101.7V101.6C147.5 101.6 147.5 101.6 147.5 101.5C147.1 100.4 146.7 99.3997 146.3 98.2997C145.8 97.1997 145.3 96.0997 144.8 95.0997C142.4 90.3997 139.4 86.0997 135.8 82.2997C133.3 79.5997 130.5 77.1997 127.5 75.0997C120.2 69.8997 111.5 66.4997 102.1 65.4997C100.7 65.3997 99.2 65.2997 97.8 65.1997C97.3 65.1997 96.9 65.1997 96.4 65.1997C96 65.1997 95.6 65.1997 95.2 65.1997C68 65.7997 45.6 86.4997 42.6 113.1C42.5 114.3 42.4 115.5 42.3 116.7C42.3 117.5 42.2 118.4 42.2 119.3C42.2 119.6 42.2 120 42.2 120.3C18.2 124.3 0 145.2 0 170.3C0 198.3 22.7 221 50.7 221H208.8C229.4 221 246.2 204.3 246.2 183.7C246.2 163.1 229.4 146.3 208.8 146.3ZM130.9 157H135.3C134.5 157.9 133.6 158.7 132.7 159.5L132.6 159.6C131.9 158.8 131.4 157.9 130.9 157Z" fill="#814cdc"/>
<path d="M135.2 157C134.4 157.9 133.5 158.7 132.6 159.5L132.5 159.6C131.9 158.8 131.4 157.9 130.9 157H135.2Z" fill="#814cdc"/>
<path d="M147.6 101.5H147.4C147.4 101.5 147.4 101.5 147.4 101.6C147.5 101.6 147.5 101.5 147.6 101.5C147.7 101.5 147.7 101.5 147.8 101.5H147.6Z" fill="#814cdc"/>
</svg>
